<?xml version="1.0" encoding="UTF-8" standalone="no"?>
<svg
   viewBox="0 0 104.59 119.53"
   version="1.1"
   id="svg3"
   sodipodi:docname="bash_icon.svg"
   inkscape:export-filename="bash_icon.svg"
   inkscape:export-xdpi="96"
   inkscape:export-ydpi="96"
   width="104.59"
   height="119.53"
   inkscape:version="1.4 (e7c3feb100, 2024-10-09)"
   xmlns:inkscape="http://www.inkscape.org/namespaces/inkscape"
   xmlns:sodipodi="http://sodipodi.sourceforge.net/DTD/sodipodi-0.dtd"
   xmlns="http://www.w3.org/2000/svg"
   xmlns:svg="http://www.w3.org/2000/svg">
  <defs
     id="defs3">
    <filter
       style="color-interpolation-filters:sRGB"
       inkscape:label="Invert"
       id="filter4"
       x="0"
       y="0"
       width="1"
       height="1">
      <feColorMatrix
         values="-1 0 0 0 1 0 -1 0 0 1 0 0 -1 0 1 -0.21 -0.72 -0.07 2 0 "
         result="color2"
         id="feColorMatrix4" />
    </filter>
    <filter
       style="color-interpolation-filters:sRGB"
       inkscape:label="Invert"
       id="filter5"
       x="0"
       y="0"
       width="1"
       height="1">
      <feColorMatrix
         values="-1 0 0 0 1 0 -1 0 0 1 0 0 -1 0 1 -0.21 -0.72 -0.07 2 0 "
         result="color2"
         id="feColorMatrix5" />
    </filter>
  </defs>
  <sodipodi:namedview
     id="namedview3"
     pagecolor="#ffffff"
     bordercolor="#000000"
     borderopacity="0.25"
     inkscape:showpageshadow="2"
     inkscape:pageopacity="0.0"
     inkscape:pagecheckerboard="0"
     inkscape:deskcolor="#d1d1d1"
     inkscape:zoom="3.2460938"
     inkscape:cx="16.635379"
     inkscape:cy="61.150421"
     inkscape:window-width="1920"
     inkscape:window-height="1048"
     inkscape:window-x="0"
     inkscape:window-y="0"
     inkscape:window-maximized="1"
     inkscape:current-layer="svg3" />
  <path
     fill="#293138"
     d="M 97.31,24.4 59.58,2 C 57.33,0.67 54.81,0 52.3,0 49.79,0 47.27,0.67 45.02,2.01 L 7.28,24.41 C 2.78,27.08 0,32.02 0,37.37 v 44.8 c 0,5.35 2.77,10.29 7.28,12.96 l 37.73,22.4 c 2.25,1.34 4.76,2 7.28,2 2.51,0 5.03,-0.67 7.28,-2 l 37.74,-22.4 c 4.5,-2.67 7.28,-7.62 7.28,-12.96 V 37.36 c 0,-5.34 -2.77,-10.29 -7.28,-12.96 z m -29.22,69.95 0.06,3.22 c 0,0.39 -0.25,0.83 -0.55,0.99 l -1.91,1.1 c -0.3,0.15 -0.56,-0.03 -0.56,-0.42 L 65.1,96.07 c -1.63,0.68 -3.29,0.84 -4.34,0.42 -0.2,-0.08 -0.29,-0.37 -0.21,-0.71 l 0.69,-2.91 c 0.06,-0.23 0.18,-0.46 0.34,-0.6 0.06,-0.06 0.12,-0.1 0.18,-0.13 0.11,-0.06 0.22,-0.07 0.31,-0.03 1.14,0.38 2.59,0.2 3.99,-0.5 1.78,-0.9 2.97,-2.72 2.95,-4.52 -0.02,-1.64 -0.9,-2.31 -3.05,-2.33 -2.74,0.01 -5.3,-0.53 -5.34,-4.57 -0.03,-3.32 1.69,-6.78 4.43,-8.96 l -0.03,-3.25 c 0,-0.4 0.24,-0.84 0.55,-1 l 1.85,-1.18 c 0.3,-0.15 0.56,0.04 0.56,0.43 l 0.03,3.25 c 1.36,-0.54 2.54,-0.69 3.61,-0.44 0.23,0.06 0.34,0.38 0.24,0.75 l -0.72,2.88 c -0.06,0.22 -0.18,0.44 -0.33,0.58 a 0.77,0.77 0 0 1 -0.19,0.14 c -0.1,0.05 -0.19,0.06 -0.28,0.05 -0.49,-0.11 -1.65,-0.36 -3.48,0.56 -1.92,0.97 -2.59,2.64 -2.58,3.88 0.02,1.48 0.77,1.93 3.39,1.97 3.49,0.06 4.99,1.58 5.03,5.09 0.05,3.44 -1.79,7.15 -4.61,9.41 z M 94.43,33.85 58.73,55.9 C 54.28,58.5 51,61.42 50.99,66.79 v 43.99 c 0,3.21 1.3,5.29 3.29,5.9 -0.65,0.11 -1.32,0.19 -1.98,0.19 -2.09,0 -4.15,-0.57 -5.96,-1.64 L 8.61,92.83 C 4.92,90.64 2.63,86.55 2.63,82.16 v -44.8 c 0,-4.39 2.29,-8.48 5.98,-10.67 L 46.35,4.29 c 1.81,-1.07 3.87,-1.64 5.96,-1.64 2.09,0 4.15,0.57 5.96,1.64 l 37.74,22.4 c 3.11,1.85 5.21,5.04 5.8,8.63 -1.27,-2.67 -4.09,-3.39 -7.38,-1.47 z"
     id="path2"
     style="filter:url(#filter4)" />
  <path
     fill="#4fa847"
     d="m 87.42,86.49 -9.4,5.62 c -0.25,0.15 -0.43,0.31 -0.43,0.61 v 2.46 c 0,0.3 0.2,0.43 0.45,0.28 l 9.54,-5.8 c 0.25,-0.15 0.29,-0.42 0.29,-0.72 v -2.17 c 0,-0.3 -0.2,-0.42 -0.45,-0.28 z"
     id="path3"
     style="filter:url(#filter5)" />
</svg>
