<?xml version="1.0" encoding="UTF-8" standalone="no"?>
<!-- Created with Inkscape (http://www.inkscape.org/) -->

<svg
   width="800"
   height="800"
   version="1.1"
   viewBox="0 0 799.99997 800"
   id="svg1"
   sodipodi:docname="raytheon_icon.svg"
   inkscape:export-filename="raytheon_icon.svg"
   inkscape:export-xdpi="14.767647"
   inkscape:export-ydpi="14.767647"
   xmlns:inkscape="http://www.inkscape.org/namespaces/inkscape"
   xmlns:sodipodi="http://sodipodi.sourceforge.net/DTD/sodipodi-0.dtd"
   xmlns="http://www.w3.org/2000/svg"
   xmlns:svg="http://www.w3.org/2000/svg">
  <defs
     id="defs1" />
  <sodipodi:namedview
     id="namedview1"
     pagecolor="#ffffff"
     bordercolor="#000000"
     borderopacity="0.25"
     inkscape:showpageshadow="2"
     inkscape:pageopacity="0.0"
     inkscape:pagecheckerboard="0"
     inkscape:deskcolor="#d1d1d1"
     inkscape:zoom="0.68808231"
     inkscape:cx="317.54922"
     inkscape:cy="211.45726"
     inkscape:window-width="1920"
     inkscape:window-height="1008"
     inkscape:window-x="1920"
     inkscape:window-y="0"
     inkscape:window-maximized="1"
     inkscape:current-layer="svg1">
    <inkscape:page
       x="0"
       y="0"
       width="800"
       height="800"
       id="page2"
       margin="0"
       bleed="0" />
  </sodipodi:namedview>
  <g
     transform="translate(-424.19,-72.89)"
     id="g1"
     inkscape:export-filename="raytheon_icon.svg"
     inkscape:export-xdpi="14.767647"
     inkscape:export-ydpi="14.767647">
    <path
       d="m 784.53,884.59 c -27.726,-3.7013 -58.502,-10.115 -58.497,-12.19 0,-0.62681 0.9219,-6.5397 2.0451,-13.14 1.1232,-6.6003 2.4917,-14.7 3.0412,-18 0.5495,-3.3 2.7546,-15.675 4.9003,-27.5 2.1456,-11.825 5.2637,-29.6 6.9292,-39.5 1.6654,-9.9 4.3912,-25.65 6.0572,-35 1.666,-9.35 4.6095,-26 6.5411,-37 4.5934,-26.159 6.4085,-35.57 7.0645,-36.632 0.2951,-0.47748 0.245,-1.34 -0.1115,-1.9167 -0.9618,-1.5564 -3.2282,0.67338 -5.5518,5.4621 -1.0905,2.2476 -2.9414,5.6615 -4.113,7.5865 -1.1717,1.925 -4.0215,6.875 -6.3331,11 -5.4804,9.78 -6.8319,12.147 -15.332,26.857 -3.9272,6.7962 -7.1403,12.543 -7.1403,12.77 0,0.227 -1.0494,2.0917 -2.3319,4.1432 -1.2825,2.0515 -3.7096,6.2051 -5.3936,9.2301 -1.684,3.025 -6.3228,11.125 -10.308,18 -6.6958,11.55 -10.635,18.471 -13.376,23.5 -0.59948,1.1 -1.3184,2.225 -1.5976,2.5 -0.56731,0.55879 -5.8293,10.268 -7.4478,13.742 -0.57449,1.2332 -1.382,2.2457 -1.7945,2.25 -0.4125,0.004 -0.75,0.37702 -0.75,0.82828 0,0.45126 -3.2127,6.4138 -7.1394,13.25 -3.9267,6.8362 -8.031,14.005 -9.1208,15.93 -7.143,12.617 -9.2668,16 -10.045,16 -1.6195,0 -26.002,-13.208 -35.652,-19.312 -5.2486,-3.3202 -11.68,-7.384 -14.293,-9.0306 -5.6809,-3.5806 -5.7489,-4.1916 -1.25,-11.225 1.925,-3.0093 3.5,-5.6747 3.5,-5.9232 0,-0.2485 2.025,-3.8769 4.5,-8.0632 2.475,-4.1863 4.5,-7.7775 4.5,-7.9805 0,-0.20299 3.6,-6.5152 8,-14.027 4.4,-7.5118 8,-13.797 8,-13.966 0,-0.16914 2.025,-3.7327 4.5,-7.919 2.475,-4.1863 4.5,-7.8147 4.5,-8.0632 0,-0.2485 1.5022,-2.823 3.3383,-5.7212 1.8361,-2.8982 4.9416,-8.2117 6.9011,-11.808 1.9595,-3.5963 4.9573,-8.9034 6.6617,-11.794 1.7044,-2.8906 3.0989,-5.4348 3.0989,-5.6537 0,-0.2189 2.3998,-4.3616 5.3329,-9.206 2.9331,-4.8444 6.6239,-11.283 8.2019,-14.308 1.578,-3.025 3.3895,-6.175 4.0257,-7 0.63614,-0.825 2.7508,-4.4422 4.6992,-8.0383 1.9484,-3.5961 4.9371,-8.9034 6.6415,-11.794 1.7044,-2.8906 3.0989,-5.4034 3.0989,-5.5839 0,-0.18052 2.475,-4.4532 5.5,-9.4949 3.025,-5.0417 5.5,-9.3958 5.5,-9.6758 0,-0.28003 1.575,-2.9713 3.5,-5.9805 4.3603,-6.8162 4.6432,-11.955 0.3724,-6.7646 -0.7548,0.91739 -7.6724,7.0381 -15.372,13.602 -7.7,6.5635 -15.134,12.9 -16.52,14.082 -1.3861,1.1816 -6.5611,5.5224 -11.5,9.6463 -4.9389,4.1239 -9.2048,7.7429 -9.4798,8.0424 -0.275,0.29943 -4.5471,3.9004 -9.4936,8.0021 -4.9465,4.1017 -9.8965,8.2906 -11,9.3086 -1.1035,1.018 -5.3814,4.6018 -9.5064,7.9639 -4.125,3.3621 -7.725,6.3934 -8,6.7362 -0.275,0.34278 -6.379,5.534 -13.565,11.536 -7.1855,6.0021 -20.209,16.988 -28.941,24.413 -42.155,35.845 -34.384,34.913 -57.23,6.8619 -17.809,-21.867 -17.881,-22.01 -12.959,-25.861 1.7571,-1.3745 14.895,-12.389 29.195,-24.476 14.3,-12.087 26.9,-22.723 28,-23.635 5.4919,-4.5547 17.06,-14.371 17.5,-14.849 0.275,-0.2993 4.55,-3.9173 9.5,-8.04 4.95,-4.1227 9.225,-7.7233 9.5,-8.0012 0.275,-0.27792 4.55,-3.8598 9.5,-7.9597 4.95,-4.0999 9.225,-7.7185 9.5,-8.0413 0.275,-0.3228 6.125,-5.2918 13,-11.042 6.875,-5.7502 12.725,-10.688 13,-10.972 1.2257,-1.2658 32.942,-27.884 36.815,-30.897 6.1258,-4.766 4.1596,-6.1252 -4.0033,-2.7676 -3.4713,1.4278 -13.286,5.1259 -21.811,8.2178 -8.525,3.0919 -17.075,6.2267 -19,6.9661 -5.4197,2.0817 -24.667,9.0893 -33,12.015 -4.125,1.4482 -12.675,4.5902 -19,6.9821 -6.325,2.3919 -21.625,8.0045 -34,12.472 -12.375,4.4675 -23.588,8.5767 -24.918,9.1305 -1.3298,0.55384 -8.0798,3.0298 -15,5.5022 -16.307,5.826 -18,6.4501 -21.582,7.9558 -9.0416,3.8006 -28.631,10.476 -29.381,10.013 -0.4801,-0.29672 -1.8722,-3.1346 -3.0934,-6.3065 -1.2212,-3.1719 -2.5906,-6.667 -3.0429,-7.767 -8.5916,-20.896 -12.976,-37.5 -9.9014,-37.5 0.99692,0 35.38,-12.368 70.919,-25.511 27.477,-10.161 51.149,-18.874 59.5,-21.9 27.326,-9.9013 80.01,-29.219 86.451,-31.7 8.6845,-3.3441 8.2804,-3.5781 10.552,6.1106 33.287,141.95 221.16,173.81 300.77,51 26.377,-40.686 33.931,-102.5 17.262,-141.25 -0.7146,-1.6613 5.5073,-1.75 122.73,-1.75 123.48,0 123.48,0 124.06,2.87 2.6031,13.016 3.3436,77.968 1.0532,92.38 -0.596,3.75 -0.596,3.75 -65.57,3.75 -72.576,0 -71.63,-0.11228 -53.232,6.3181 10.416,3.6406 27.276,9.8076 52.424,19.177 6.325,2.3563 16.225,5.9347 22,7.9518 5.775,2.0171 11.4,4.0791 12.5,4.5821 1.1,0.503 6.5,2.5566 12,4.5637 5.5,2.0071 10.301,3.9324 10.669,4.2784 1.8141,1.7049 -13.358,50.379 -20.924,67.129 -1.118,2.475 -3.4023,7.5375 -5.0762,11.25 -1.6738,3.7125 -3.468,6.75 -3.987,6.75 -0.9429,0 -12.902,-4.2643 -16.682,-5.9486 -1.1,-0.49008 -5.15,-2.0127 -9,-3.3836 -8.5853,-3.057 -34.64,-12.574 -47.5,-17.35 -5.225,-1.9405 -12.425,-4.5972 -16,-5.9038 -3.575,-1.3066 -14.6,-5.3363 -24.5,-8.955 -9.9,-3.6187 -19.418,-7.2274 -21.151,-8.0193 -8.6651,-3.9596 -6.9418,-0.90944 5.066,8.9667 5.7282,4.7113 11.016,9.1347 11.75,9.8297 0.734,0.695 6.9601,5.9792 13.835,11.743 6.875,5.7634 15.663,13.188 19.528,16.5 3.8655,3.3116 9.2655,7.8944 12,10.184 2.7345,2.2897 6.0968,5.1525 7.4718,6.3616 1.375,1.2091 4.525,3.8357 7,5.8368 2.475,2.0011 4.725,3.8873 5,4.1915 0.275,0.30426 6.35,5.4232 13.5,11.375 15.752,13.113 14.963,10.324 6.4217,22.697 -11.01,15.949 -25.57,33.591 -40.132,48.625 -7.8792,8.1347 -7.1953,7.6771 -8.9683,6 -0.7268,-0.6875 -5.3714,-4.6241 -10.321,-8.7479 -4.95,-4.1239 -9.225,-7.7248 -9.5,-8.0021 -0.275,-0.2773 -4.55,-3.8773 -9.5,-8 -4.95,-4.1227 -9.225,-7.7451 -9.5,-8.0496 -0.275,-0.30457 -7.4288,-6.3805 -15.897,-13.502 -8.4685,-7.1216 -20.194,-16.998 -26.056,-21.948 -5.862,-4.95 -17.158,-14.462 -25.103,-21.137 -7.945,-6.675 -15.535,-13.313 -16.868,-14.75 -4.7163,-5.0831 -6.8459,-2.6225 -2.5756,2.976 1.375,1.8027 2.5,3.4955 2.5,3.7618 0,0.2663 2.025,3.9092 4.5,8.0955 2.475,4.1863 4.5,7.806 4.5,8.0438 0,0.2378 2.475,4.5573 5.5,9.599 3.025,5.0417 5.5,9.297 5.5,9.4562 0,0.1592 2.025,3.7148 4.5,7.901 2.475,4.1863 4.5,7.7974 4.5,8.0246 0,0.22726 2.4138,4.3768 5.3642,9.2212 2.9503,4.8444 7.297,12.408 9.6593,16.808 2.3624,4.4 5.1235,9.1945 6.1359,10.654 1.0123,1.4599 1.8406,2.9137 1.8406,3.2306 0,0.31692 1.4875,2.9474 3.3055,5.8456 1.8181,2.8982 4.6306,7.8558 6.25,11.017 1.6195,3.1612 3.282,5.7487 3.6945,5.75 0.4125,10e-4 0.75,0.42643 0.75,0.9447 0,0.51828 2.8995,5.9006 6.4434,11.961 7.315,12.509 7.959,10.848 -8.4434,21.775 -17.09,11.385 -51.674,30.359 -55.227,30.301 -0.7,-0.0116 -3.7477,-4.3505 -6.7727,-9.642 -7.4715,-13.07 -9.655,-16.862 -13.612,-23.641 -1.8633,-3.192 -3.3878,-6.0134 -3.3878,-6.2699 0,-0.2565 -1.1492,-2.2867 -2.5538,-4.5116 -2.4137,-3.8235 -3.4909,-5.6694 -8.559,-14.665 -1.162,-2.0625 -3.8112,-6.675 -5.8872,-10.25 -2.0761,-3.575 -4.6703,-8.075 -5.765,-10 -1.0947,-1.925 -3.6205,-6.3557 -5.6127,-9.8461 -1.9923,-3.4903 -3.6223,-6.7528 -3.6223,-7.25 0,-0.49716 -0.45,-0.90393 -1,-0.90393 -0.55,0 -1,-0.40195 -1,-0.89323 0,-0.49128 -3.2136,-6.4538 -7.1414,-13.25 -3.9277,-6.7962 -8.1563,-14.157 -9.3968,-16.357 -7.2423,-12.844 -12.604,-22.188 -13.484,-23.5 -0.5535,-0.825 -1.4814,-2.7014 -2.0619,-4.1698 -1.1528,-2.9162 -3.4853,-4.3355 -4.4799,-2.7261 -0.3456,0.55918 -0.1404,2.227 0.4559,3.7063 0.5964,1.4793 2.4693,10.79 4.162,20.69 1.6927,9.9 3.481,20.25 3.974,23 3.4427,19.206 6.4084,36.03 8.5493,48.5 1.3692,7.975 3.8206,21.925 5.4475,31 9.5308,53.164 9.5828,53.507 8.2468,54.332 -3.8707,2.3922 -61.122,12.668 -70.58,12.668 -0.464,0 -1.4032,-4.8868 -5.7661,-30 -2.4203,-13.932 -3.2159,-18.463 -6.4084,-36.5 -1.3629,-7.7 -2.9444,-16.7 -3.5144,-20 -0.5699,-3.3 -3.5392,-20.175 -6.5983,-37.5 -8.7813,-49.732 -11.402,-65.211 -11.419,-67.432 -0.048,-6.4287 -2.9446,-5.6024 -4.0721,1.1615 -0.4374,2.6238 -1.9594,11.296 -3.3823,19.271 -1.4228,7.975 -3.9003,22.15 -5.5054,31.5 -3.1987,18.632 -6.397,36.922 -11.016,63 -1.6563,9.35 -4.1657,23.525 -5.5764,31.5 -1.4108,7.975 -3.0009,17.425 -3.5336,21 -2.1916,14.707 -4.3828,23.484 -5.8984,23.625 -0.825,0.0768 -4.65,-0.28086 -8.5,-0.79482 z M 424.48,499.49 c -0.2686,-0.69995 -0.36697,-11.387 -0.21862,-23.75 0.26974,-22.477 0.26974,-22.477 121.55,-22.731 121.28,-0.25401 121.28,-0.25401 120.5,5 -0.96728,6.4742 -1.036,33.884 -0.0978,39.004 0.71632,3.9093 -240.24,6.3787 -241.74,2.4774 z m 230.05,-63.825 c -7.15,-2.6909 -14.8,-5.5424 -17,-6.3367 -3.9273,-1.4179 -17.665,-6.3968 -30.5,-11.054 -3.575,-1.2972 -21.125,-7.7384 -39,-14.314 -17.875,-6.5756 -37.675,-13.845 -44,-16.156 -6.325,-2.3102 -18.025,-6.6064 -26,-9.5471 -15.096,-5.5664 -44.662,-16.29 -51.376,-18.634 -4.4017,-1.5368 -5.3411,-3.0416 -3.857,-6.1778 0.56806,-1.2004 2.2246,-5.7825 3.6813,-10.183 1.4567,-4.4005 3.0417,-8.9 3.5224,-10 0.4807,-1.1 1.9214,-4.8631 3.2016,-8.3624 3.0086,-8.2238 4.5016,-8.5038 16.328,-3.0619 2.4739,1.1384 15.869,6.0262 28.5,10.4 5.225,1.8091 11.975,4.2879 15,5.5084 3.025,1.2205 11.575,4.3812 19,7.0237 7.425,2.6425 17.1,6.1418 21.5,7.7762 4.4,1.6344 17.45,6.4465 29,10.694 11.55,4.2475 26.85,9.8944 34,12.55 13.358,4.9608 18.677,6.8874 26.5,9.5992 12.576,4.3596 39.6,14.614 40.295,15.29 0.43705,0.42528 -1.038,4.7218 -3.2779,9.5479 -3.46,7.455 -6.8919,16.943 -9.9369,27.474 -0.99035,3.4248 -1.1152,3.4085 -15.58,-2.0353 z m 35,-52.552 c -1.65,-1.4226 -4.35,-3.7752 -6,-5.2279 -1.65,-1.4527 -8.625,-7.3621 -15.5,-13.132 -6.875,-5.7699 -13.074,-11.032 -13.775,-11.694 -0.70115,-0.66185 -3.4012,-2.9118 -6,-5 -2.5989,-2.0881 -4.9502,-4.0547 -5.2252,-4.3701 -0.275,-0.31539 -10.85,-9.2911 -23.5,-19.946 -31.526,-26.554 -41.913,-35.354 -42.5,-36.01 -0.275,-0.3069 -4.55,-3.9078 -9.5,-8.0019 -9.2313,-7.6352 -10.35,-8.5788 -19.085,-16.094 -2.7967,-2.4063 -6.1717,-5.2815 -7.5,-6.3895 -20.585,-17.17 -32.915,-27.738 -32.915,-28.211 0,-1.8698 22.236,-28.311 23.747,-28.239 0.41393,0.0198 1.9218,1.0323 3.3509,2.25 1.4291,1.2177 8.6291,7.3319 16,13.587 7.3709,6.2551 15.652,13.29 18.402,15.633 2.75,2.343 9.7526,8.2499 15.561,13.127 13.851,11.629 57.71,48.685 75.439,63.737 7.7,6.5374 20.75,17.546 29,24.464 8.25,6.918 16.35,13.844 18,15.39 1.65,1.5465 4.4594,3.8163 6.2431,5.0439 4.3018,2.9607 4.2654,3.0705 -3.8892,11.732 -3.8836,4.125 -8.4565,9.5148 -10.162,11.977 -6.2794,9.0667 -6.0487,8.9451 -10.192,5.3728 z m 268.24,-10.224 c -3.033,-3.7804 -5.2278,-7.2779 -4.8774,-7.7723 0.3505,-0.49437 3.3373,-3.1388 6.6373,-5.8766 3.3,-2.7377 6.225,-5.2042 6.5,-5.4809 0.275,-0.2767 4.55,-3.8577 9.5,-7.9576 4.95,-4.0999 9.225,-7.7117 9.5,-8.0261 0.275,-0.31443 7.475,-6.3852 16,-13.491 8.525,-7.1054 15.725,-13.186 16,-13.512 0.275,-0.326 7.475,-6.4246 16,-13.552 8.525,-7.1271 15.725,-13.202 16,-13.501 0.275,-0.299 4.55,-3.8968 9.5,-7.9968 4.95,-4.1 9.225,-7.7009 9.5,-8.0022 0.275,-0.30127 9.05,-7.7173 19.5,-16.48 17.621,-14.776 29.668,-24.994 37,-31.386 13.598,-11.852 12.543,-11.665 19.384,-3.4466 6.47,7.7729 6.9072,6.436 -5.5261,16.898 -5.8532,4.9254 -17.216,14.538 -25.25,21.361 -8.034,6.823 -16.819,14.248 -19.521,16.5 -2.702,2.252 -7.2021,6.0625 -10,8.4688 -6.1989,5.3312 -7.7308,6.6238 -19.107,16.123 -4.9389,4.1239 -9.2048,7.7429 -9.4798,8.0424 -0.275,0.29943 -4.55,3.8989 -9.5,7.9988 -4.95,4.0999 -9.225,7.7004 -9.5,8.0012 -0.275,0.30071 -4.55,3.8826 -9.5,7.9598 -4.95,4.0772 -9.225,7.6641 -9.5,7.971 -0.5248,0.58559 -8.812,7.6184 -35.741,30.331 -19.064,16.079 -16.655,15.38 -23.519,6.8245 z M 732.64,339.506 c -1.0403,-1.784 -3.473,-6.1687 -5.4059,-9.7437 -1.933,-3.575 -4.3443,-7.6945 -5.3586,-9.1544 -1.0142,-1.4599 -1.844,-2.944 -1.844,-3.298 0,-0.35401 -1.575,-3.1058 -3.5,-6.115 -1.925,-3.0092 -3.5,-5.6396 -3.5,-5.8452 0,-0.2056 -3.2136,-5.9344 -7.1414,-12.731 -3.9277,-6.7962 -8.2612,-14.382 -9.63,-16.857 -1.3688,-2.475 -5.7397,-10.125 -9.7132,-17 -16.371,-28.326 -18.515,-32.154 -18.515,-33.056 0,-0.51901 -0.39752,-0.94365 -0.88337,-0.94365 -0.48585,0 -1.1361,-0.7875 -1.445,-1.75 -0.3089,-0.9625 -1.8721,-4 -3.4739,-6.75 -1.6018,-2.75 -4.1705,-7.25 -5.7084,-10 -1.5379,-2.75 -5.2022,-9.0051 -8.1428,-13.9 -2.9406,-4.8951 -5.3466,-9.0378 -5.3466,-9.206 0,-0.16816 -1.3945,-2.6708 -3.0989,-5.5614 -1.7044,-2.8906 -4.7021,-8.1979 -6.6617,-11.794 -1.9596,-3.5961 -5.0651,-8.9096 -6.9011,-11.808 -1.8361,-2.8982 -3.3383,-5.4485 -3.3383,-5.6674 0,-0.21887 -2.025,-3.8231 -4.5,-8.0094 -5.7337,-9.6981 -6.4107,-8.224 7.6163,-16.582 15.466,-9.2154 14.824,-9.0988 17.98,-3.2684 3.7306,6.8926 7.0311,12.689 14.402,25.294 3.5758,6.1148 6.5015,11.28 6.5015,11.479 0,0.19847 2.6519,4.8527 5.8931,10.343 3.2412,5.4901 7.2248,12.389 8.8523,15.331 1.6275,2.9422 5.4306,9.6245 8.4512,14.85 3.0207,5.225 6.6374,11.525 8.0372,14 1.3998,2.475 7.6114,13.275 13.804,24 6.1921,10.725 13.944,24.225 17.226,30 3.282,5.775 7.0398,12.385 8.3506,14.69 1.3109,2.3044 5.3091,9.1928 8.8849,15.308 3.5758,6.1152 6.5015,11.308 6.5015,11.541 0,0.233 1.575,2.885 3.5,5.8943 1.925,3.0093 3.51,5.8305 3.5222,6.2694 0.012,0.43892 0.9022,1.923 1.9778,3.298 3.1386,4.0126 2.4965,5.4196 -3.8002,8.3265 -3.19,1.4728 -8.8818,4.7018 -12.648,7.1756 -8.1631,5.3615 -8.5172,5.4017 -10.943,1.2416 z m 186.39,-0.64989 c -1.375,-1.0113 -5.3125,-3.2918 -8.75,-5.0676 -5.8914,-3.0436 -7.5473,-5.1064 -5.2427,-6.5307 0.5541,-0.34243 1.8368,-2.2815 2.8505,-4.309 1.0137,-2.0275 5.1209,-9.3114 9.1272,-16.186 4.0062,-6.875 9.1865,-15.875 11.512,-20 2.3255,-4.125 12.002,-21 21.504,-37.5 9.502,-16.5 18.051,-31.35 18.998,-33 0.947,-1.65 4.9349,-8.5933 8.8616,-15.43 3.9266,-6.8362 7.1394,-12.617 7.1394,-12.846 0,-0.229 0.8356,-1.6106 1.857,-3.0705 1.0214,-1.4599 3.0464,-4.7919 4.5,-7.4044 5.372,-9.6548 7.7875,-13.882 14.142,-24.747 3.5758,-6.1148 6.5015,-11.326 6.5015,-11.58 0,-0.254 1.2037,-2.3658 2.675,-4.6923 1.4713,-2.3265 4.1415,-6.9301 5.9338,-10.23 4.6217,-8.5095 4.6673,-8.5172 14.685,-2.5091 4.7882,2.8716 8.7058,5.4227 8.7058,5.6691 0,0.50993 -4.7868,9.1944 -9.0992,16.508 -1.5954,2.7059 -2.9008,5.1466 -2.9008,5.4239 0,0.27722 -1.575,2.9662 -3.5,5.9754 -1.925,3.0092 -3.5,5.6789 -3.5,5.9326 0,0.2537 -1.575,2.9233 -3.5,5.9326 -1.925,3.0093 -3.5,5.6808 -3.5,5.9368 0,0.25597 -2.025,3.8906 -4.5,8.0768 -2.475,4.1863 -4.5,8.0485 -4.5,8.5826 0,0.5341 -0.45,0.9712 -1,0.9712 -0.55,0 -1,0.40677 -1,0.90393 0,0.49717 -1.6305,3.7597 -3.6233,7.25 -1.9929,3.4903 -4.7572,8.3711 -6.143,10.846 -1.3858,2.4749 -3.3553,5.6945 -4.3767,7.1544 -1.0214,1.4599 -1.857,2.9007 -1.857,3.2017 0,0.30103 -3.6,6.6935 -8,14.205 -4.4,7.5115 -8,13.806 -8,13.986 0,0.18036 -4.5,8.0339 -10,17.452 -5.5,9.4181 -10,17.33 -10,17.582 0,0.252 -1.1492,2.278 -2.5538,4.503 -1.4045,2.2249 -3.3622,5.4785 -4.3503,7.2301 -0.9882,1.7516 -5.5332,9.7098 -10.1,17.685 -4.5668,7.9752 -9.6968,16.938 -11.4,19.918 -3.5975,6.2955 -4.2364,6.6467 -7.5961,4.1756 z m -132.77,-34.766 c -1.2479,-7.6051 -3.6059,-21.477 -5.2399,-30.827 -1.634,-9.35 -3.4447,-19.925 -4.0237,-23.5 -0.579,-3.575 -2.7893,-16.175 -4.9118,-28 -2.1225,-11.825 -5.0508,-28.475 -6.5073,-37 -1.4566,-8.525 -3.0537,-17.525 -3.5492,-20 -0.4954,-2.475 -2.0831,-11.475 -3.5281,-20 -2.5699,-15.161 -6.815,-39.288 -10.159,-57.736 -2.0036,-11.055 -3.0172,-9.838 10.22,-12.27 15.245,-2.8009 14.023,-3.2558 15.463,5.7559 1.9481,12.196 2.727,16.763 5.5006,32.25 1.4283,7.975 2.9971,16.975 3.4862,20 0.4891,3.025 2.0594,12.025 3.4896,20 1.4302,7.975 3.4607,19.45 4.5123,25.5 1.0515,6.05 3.0611,17.525 4.4659,25.5 3.4097,19.358 8.8893,50.62 12.532,71.5 4.3791,25.097 5.7684,32.695 6.5292,35.706 0.7775,3.0773 1.2177,2.899 -12.011,4.8659 -4.4,0.65423 -9.35,1.3904 -11,1.636 -3,0.44652 -3,0.44652 -5.269,-13.381 z m 75.769,12.131 c -3.025,-0.69603 -7.161,-1.3089 -9.191,-1.3619 -5.5424,-0.1448 -5.4662,1.8308 -0.9105,-23.596 1.0839,-6.05 3.1055,-17.525 4.4924,-25.5 1.3868,-7.975 3.6775,-21.025 5.0904,-29 1.4128,-7.975 4.0914,-23.275 5.9525,-34 8.2575,-47.587 9.73,-55.965 11.162,-63.5 0.836,-4.4 2.3717,-12.95 3.4127,-19 6.4007,-37.199 8.1561,-46.998 8.4775,-47.319 0.5015,-0.50147 20.189,2.9999 21.531,3.8292 1.265,0.78182 0.2489,7.3583 -10.542,68.24 -5.3355,30.101 -7.586,42.927 -10.978,62.564 -1.9297,11.173 -4.201,24.223 -5.0474,29 -0.8463,4.7775 -2.6062,14.761 -3.9109,22.186 -1.3046,7.425 -3.3357,18.9 -4.5136,25.5 -1.1778,6.6 -2.5706,14.7 -3.095,18 -1.8741,11.793 -3.03,15.508 -4.7794,15.362 -0.9076,-0.0759 -4.1252,-0.70755 -7.1502,-1.4036 z"
       fill="#ff0000"
       id="path1" />
  </g>
</svg>
