<?xml version="1.0" encoding="UTF-8" standalone="no"?>
<svg
   viewBox="0 0 127.3657 127.72205"
   version="1.1"
   id="svg1"
   width="127.3657"
   height="127.72205"
   xmlns="http://www.w3.org/2000/svg"
   xmlns:svg="http://www.w3.org/2000/svg">
  <defs
     id="defs1" />
  <path
     d="m 62.651173,0.13283401 c -0.232,0.135 -1.203,1.52799999 -2.16,3.09699999 -2.4,3.94 -2.426,3.942 -5.65,0.55 -2.098,-2.208 -2.605,-2.612 -3.28,-2.607 -0.44,0.002 -0.995,0.152 -1.235,0.332 -0.24,0.18 -0.916,1.612 -1.504,3.183 -1.346,3.6 -1.41,3.715 -2.156,3.86 -0.46,0.086 -1.343,-0.407 -3.463,-1.929 -1.565,-1.125 -3.1,-2.045 -3.411,-2.045 -1.291,0 -1.655,0.706 -2.27,4.4 -0.78,4.697 -0.754,4.681 -4.988,2.758 -1.71,-0.776 -3.33,-1.41 -3.603,-1.41 -0.274,0 -0.792,0.293 -1.15,0.652 -0.652,0.652 -0.653,0.655 -0.475,4.246 l 0.178,3.595 -0.68,0.364 c -0.602,0.322 -1.017,0.283 -3.684,-0.348 -3.48,-0.822 -4.216,-0.8 -4.92,0.15 l -0.516,0.693 0.692,2.964 c 0.38,1.63 0.745,3.2 0.814,3.487 0.067,0.287 -0.05,0.746 -0.26,1.02 -0.348,0.448 -0.717,0.49 -3.94,0.44 -5.4519994,-0.086 -5.7609994,0.382 -3.51,5.3 0.718,1.56 1.305,2.98 1.305,3.15 0,0.898 -0.717,1.224 -3.7939994,1.727 -1.722,0.28 -3.218,0.51 -3.326,0.51 -0.107,0 -0.43,0.235 -0.717,0.522 -0.937,0.936 -0.671,1.816 1.453,4.814 2.646,3.735 2.642,3.75 -1.73,5.421 -4.97099997,1.902 -5.07199997,2.37 -1.287,5.96 3.525,3.344 3.53,3.295 -0.461,5.804 -3.02399997,1.898 -3.06999997,1.944 -3.14699997,2.974 -0.093,1.253 -0.071,1.275 3.53799997,3.48 3.57,2.18 3.57,2.246 0.067,5.56 -3.76799997,3.564 -3.65199997,4.084 1.323,5.961 4.347,1.64 4.353,1.66 1.702,5.394 -1.502,2.117 -1.981,3 -1.981,3.653 0,1.223 0.637,1.535 4.44,2.174 3.2059994,0.54 3.9199994,0.857 3.9199994,1.741 0,0.182 -0.588,1.612 -1.307,3.177 -2.2359994,4.87 -1.9809994,5.274996 3.31,5.274996 4.93,0 4.799,-0.15 3.737,4.294 -0.8,3.35 -0.813,3.992 -0.088,4.715 0.554,0.556 1.6,0.494 4.87,-0.289 2.499,-0.596 2.937,-0.637 3.516,-0.328 l 0.66,0.354 -0.177,3.594 c -0.178,3.593 -0.177,3.595 0.475,4.248 0.358,0.36 0.884,0.652 1.165,0.652 0.282,0 1.903,-0.63 3.604,-1.404 4.22,-1.916 4.194,-1.932 4.973,2.75 0.617,3.711 0.977,4.4 2.294,4.4 0.327,0 1.83,-0.88 3.34,-1.958 2.654,-1.893 3.342,-2.19 4.049,-1.74 0.182,0.115 0.89,1.67 1.572,3.455 1.003,2.625 1.37,3.31 1.929,3.576 1.062,0.51 1.72,0.1 4.218,-2.62 3.016,-3.286 3.14,-3.27 5.602,0.72 2.72,4.406 3.424,4.396 6.212,-0.089 2.402,-3.864 2.374,-3.862 5.621,-0.47 2.157,2.25 2.616,2.61 3.343,2.61 0.464,0 1.019,-0.175 1.23,-0.388 0.214,-0.213 0.92,-1.786 1.568,-3.496 0.649,-1.71 1.321,-3.2 1.495,-3.31 0.687,-0.436 1.398,-0.13 4.048,1.752 1.56,1.108 3.028,1.96 3.377,1.96 1.296,0 1.764,-0.92 2.302,-4.535 0.46,-3.082 0.554,-3.378 1.16,-3.685 0.596,-0.302 0.954,-0.2 3.75,1.07 1.701,0.77 3.323,1.402 3.604,1.402 0.282,0 0.816,-0.302 1.184,-0.672 l 0.672007,-0.67 -0.184004,-3.448 c -0.177003,-3.29 -0.160003,-3.468 0.364004,-3.943 0.54,-0.488 0.596,-0.486 3.615,0.204 3.656,0.835 4.338,0.857 5.025,0.17 0.671,-0.67 0.664,-0.818 -0.254,-4.69 -1.03,-4.346 -1.168,-4.19 3.78,-4.19 3.374,0 3.75,-0.049 4.18,-0.522996 0.718,-0.793 0.547,-1.702 -0.896,-4.779 -0.729,-1.55 -1.32,-2.96 -1.315,-3.135 0.024,-0.914 0.743,-1.227 4.065,-1.767 2.033,-0.329 3.553,-0.71 3.829,-0.96 0.923,-0.833 0.584,-1.918 -1.523,-4.873 -2.642,-3.703 -2.63,-3.738 1.599,-5.297 5.064,-1.866 5.209,-2.488 1.419,-6.09 -3.51,-3.335 -3.512,-3.317 0.333,-5.677 4.648,-2.853 4.655,-3.496 0.082,-6.335 -3.933,-2.44 -3.93,-2.406 -0.405,-5.753 3.78,-3.593 3.678,-4.063 -1.295,-5.965 -4.388,-1.679 -4.402,-1.72 -1.735,-5.38 1.588,-2.18 1.982,-2.903 1.982,-3.65 0,-1.306 -0.586,-1.598 -4.436,-2.22 -3.216,-0.52 -3.924,-0.835 -3.924,-1.75 0,-0.174 0.588,-1.574 1.307,-3.113 1.406,-3.013 1.604,-4.22 0.808,-4.94 -0.428,-0.387 -1,-0.443 -4.067,-0.392 -3.208,0.054 -3.618,0.008 -4.063,-0.439 -0.486,-0.488 -0.48,-0.557 0.278,-3.725 0.931,-3.88 0.935,-3.975 0.17,-4.694 -0.777,-0.73 -1.262,-0.718 -4.826,0.121 -2.597,0.612 -3.027,0.653 -3.617,0.337 l -0.670007,-0.36 0.185003,-3.582 0.186004,-3.58 -0.670007,-0.67 c -0.369,-0.37 -0.891,-0.67 -1.163,-0.67 -0.27,0 -1.884,0.64 -3.583,1.421 -2.838,1.306 -3.143,1.393 -3.757,1.072 -0.612,-0.32 -0.714,-0.637 -1.237,-3.829 -0.603,-3.693 -0.977,-4.412 -2.288,-4.412 -0.311,0 -1.853,0.925 -3.426,2.055 -2.584,1.856 -2.93,2.032 -3.574,1.807 -0.533,-0.186 -0.843,-0.59 -1.221,-1.599 -0.28,-0.742 -0.817,-2.172 -1.194,-3.177 -0.762,-2.028 -1.187,-2.482 -2.328,-2.482 -0.637,0 -1.213,0.458 -3.28,2.604 -3.25,3.375 -3.261,3.374 -5.65,-0.545 -0.955,-1.566 -1.953,-2.96399999 -2.218,-3.10599999 -0.597,-0.32 -1.3,-0.32 -1.85,0.002 m 2.96,11.79799999 c 2.83,2.014 1.326,6.75 -2.144,6.75 -3.368,0 -5.064,-4.057 -2.66,-6.36 1.358,-1.3 3.304,-1.459 4.805,-0.39 m -3.558,12.507 c 1.855,0.705 2.616,0.282 6.852,-3.8 l 3.182,-3.07 1.347,0.18 c 4.225,0.56 12.627,4.25 17.455,7.666 4.436,3.14 10.332007,9.534 12.845007,13.93 l 0.537,0.942 -2.38,5.364 c -1.31,2.95 -2.382007,5.673 -2.382007,6.053 0,0.878 0.576007,2.267 1.130007,2.726 0.234,0.195 2.457,1.265 4.939,2.378 l 4.51,2.025 0.178,1.148 c 0.23,1.495 0.26,5.167 0.052,6.21 l -0.163,0.816 h -2.575 c -2.987,0 -2.756,-0.267 -2.918,3.396 -0.118,2.656 -0.76,4.124 -2.22,5.075 -2.377,1.551 -6.304007,1.27 -7.970007,-0.57 -0.255,-0.284 -0.752,-1.705 -1.105,-3.16 -1.03,-4.254 -2.413,-6.64 -5.193,-8.965 -0.878,-0.733 -1.595,-1.418 -1.595,-1.522 0,-0.102 0.965,-0.915 2.145,-1.803 4.298,-3.24 6.77,-7.012 7.04,-10.747 0.519,-7.126 -5.158,-13.767 -13.602,-15.92 -2.002,-0.51 -2.857,-0.526 -27.624,-0.526 -14.057,0 -25.56,-0.092 -25.56,-0.204 0,-0.263 3.125,-3.295 4.965,-4.816 5.054,-4.178 11.618,-7.465 18.417,-9.22 l 2.35,-0.61 3.34,3.387 c 1.839,1.863 3.64,3.5 4.003,3.637 m -42.063,21.793 c 1.539,1.008 2.17,3.54 1.26,5.062 -1.405,2.356 -4.966,2.455 -6.373,0.178 -2.046,-3.309 1.895,-7.349 5.113,-5.24 m 90.672007,0.13 c 4.026,2.454 0.906,8.493 -3.404,6.586 -2.877,-1.273 -2.97,-5.206 -0.155,-6.64 1.174,-0.6 2.523,-0.579 3.56,0.053 m -78.810007,15.031 v 15.02 h -13.28 l -0.526,-2.285 c -1.036,-4.5 -1.472,-9.156 -1.211,-12.969 l 0.182,-2.679 4.565,-2.047 c 2.864,-1.283 4.706,-2.262 4.943,-2.625 1.038,-1.584 0.94,-2.715 -0.518,-5.933 l -0.68,-1.502 h 6.523 v 15.02 m 38.229,-14.368 c 2.843,0.74 4.345,2.245 4.349,4.355 0.002,1.55 -0.765,2.52 -2.67,3.38 -1.348,0.61 -1.562,0.625 -10.063,0.708 l -8.686,0.084 v -8.92 h 7.782 c 6.078,0 8.112,0.086 9.288,0.393 m -2.934,21.554 c 1.41,0.392 3.076,1.616 3.93,2.888 0.898,1.337 1.423,3.076 2.667,8.836 1.05,4.87 1.727,6.46 3.62,8.532 2.345,2.566 1.8,2.466 13.514,2.466 5.61,0 10.198007,0.09 10.198007,0.2 0,0.197 -3.863007,4.764 -4.030007,4.764 -0.048,0 -2.066,-0.422 -4.484,-0.939 -6.829,-1.458 -7.075,-1.287 -8.642,6.031996 l -1.008,4.702 -0.91,0.448 c -1.518,0.75 -6.453,2.292 -9.01,2.82 -4.228,0.87 -8.828,1.162 -12.871,0.821 -6.893,-0.585 -16.02,-3.259 -16.377,-4.8 -0.075,-0.327 -0.535,-2.443 -1.018,-4.704 -0.485,-2.259996 -1.074,-4.403996 -1.31,-4.763996 -1.13,-1.724 -2.318,-1.83 -7.547,-0.674 -1.98,0.44 -3.708,0.796 -3.84,0.796 -0.248,0 -3.923,-4.249 -3.923,-4.535 0,-0.09 8.728,-0.194 19.396,-0.23 l 19.395,-0.066 0.07,-6.89 c 0.05,-4.865 -0.018,-6.997 -0.23,-7.25 -0.234,-0.284 -1.485,-0.358 -6.011,-0.358 h -5.715 v -8.36 l 6.597,10e-4 c 3.626,0.002 7.02,0.12 7.539,0.264 m -29.886,31.333999 c 3.084,1.879997 1.605,6.803997 -2.043,6.799997 -3.74,0 -5.127,-4.88 -1.94,-6.825996 1.055,-0.643 2.908,-0.63 3.983,0.026 m 56.48,0.205996 c 1.512,1.108 2.015,3.413 1.079,4.95 -2.46,4.034 -8.612,0.827 -6.557,-3.419 1.01,-2.084994 3.695,-2.836994 5.478,-1.53"
     id="path1"
     style="fill:#d45500" />
  <path
     style="fill:#d45500;stroke-width:0.217833"
     d="m 63.251695,127.6483 c -0.626852,-0.24212 -1.175728,-0.90849 -2.836897,-3.4442 -1.596759,-2.43739 -2.198348,-2.99615 -2.964141,-2.7531 -0.267,0.0847 -1.521619,1.21433 -2.788037,2.51018 -3.344532,3.42226 -3.959061,3.41593 -5.34077,-0.0551 -1.481276,-3.72115 -1.899,-4.53426 -2.393111,-4.65827 -0.675877,-0.16963 -1.247517,0.10845 -4.037535,1.96409 -1.373995,0.91385 -2.72311,1.718 -2.998033,1.787 -1.078881,0.27078 -1.637772,-0.77267 -2.251429,-4.20343 -0.627377,-3.50747 -0.847321,-3.99742 -1.794492,-3.99742 -0.410468,0 -2.009853,0.53542 -3.578861,1.19808 -1.560209,0.65895 -3.031497,1.19808 -3.269534,1.19808 -0.238035,0 -0.703978,-0.21331 -1.035429,-0.47403 l -0.602635,-0.47403 0.103469,-3.76142 0.103468,-3.76142 -0.658592,-0.2728 c -0.561404,-0.23254 -1.014449,-0.19547 -3.069999,0.25118 -1.326273,0.2882 -3.012986,0.56033 -3.748253,0.60476 -1.196681,0.0723 -1.373689,0.0282 -1.688207,-0.42087 -0.474875,-0.67798 -0.444815,-1.32362 0.193225,-4.1501 0.616883,-2.73275 0.68298,-3.92838 0.237605,-4.29801 -0.188914,-0.15678 -1.732489,-0.31589 -4.013455,-0.41368 -5.342055,-0.229039 -5.3409033,-0.22715 -3.17177,-5.200605 0.694695,-1.592816 1.169995,-2.982889 1.131863,-3.310266 C 12.691322,90.750356 12.072611,90.490984 8.8590026,89.86914 5.8644156,89.28968 5.2034539,89.079284 4.7818834,88.571321 4.2846791,87.972227 4.684866,86.969236 6.5074748,84.246464 8.3432319,81.504049 8.5830756,80.750438 7.8354494,80.073846 7.6080906,79.86809 6.358273,79.280082 5.0580769,78.767161 1.2238054,77.254563 0.63011785,76.81826 0.96602701,75.759905 1.0472402,75.504023 2.2289697,74.144152 3.5920923,72.737969 6.3479268,69.895074 6.5299919,69.478471 5.4234674,68.547391 5.067601,68.247951 4.0138332,67.533118 3.0817611,66.958878 0.02496037,65.075612 -0.05926246,64.990113 0.01507708,63.845665 l 0.065009,-1.000806 2.78776622,-1.855544 C 4.4011237,59.968767 5.7474654,58.988518 5.8597224,58.810984 6.3832487,57.983033 6.0794196,57.470434 3.5564988,54.92515 2.1737995,53.530195 0.98551191,52.162886 0.91585951,51.886685 0.70626206,51.055543 1.5649389,50.426414 4.5364395,49.233991 6.0609835,48.622211 7.5199479,47.973448 7.7785832,47.792291 8.6770287,47.162997 8.3769229,46.201844 6.3911678,43.348794 3.5617867,39.283659 3.775857,38.71616 8.4308085,37.941713 c 3.6073365,-0.600154 4.3925155,-0.899472 4.3925155,-1.674476 0,-0.312837 -0.526539,-1.812718 -1.170088,-3.333072 -1.367503,-3.230661 -1.533406,-3.823773 -1.228785,-4.392962 0.350531,-0.654974 1.590662,-0.873862 4.958413,-0.87518 2.812754,-0.0011 3.145016,-0.04211 3.539788,-0.436881 0.239616,-0.239617 0.435666,-0.545426 0.435666,-0.679579 0,-0.13415 -0.345746,-1.715695 -0.768326,-3.514544 -0.716535,-3.050168 -0.745126,-3.306044 -0.424145,-3.795922 0.652165,-0.995329 1.180743,-1.063993 3.864598,-0.502024 3.099081,0.648913 4.440092,0.764515 5.054454,0.435719 0.479631,-0.256691 0.484376,-0.305733 0.37984,-3.926727 l -0.105856,-3.66679 0.606022,-0.561643 c 0.333311,-0.308903 0.755173,-0.561642 0.937469,-0.561642 0.182296,0 1.613756,0.549262 3.181024,1.220582 1.567268,0.671319 3.144883,1.268503 3.505813,1.327073 1.058558,0.171781 1.343573,-0.375972 2.046599,-3.9332183 0.348137,-1.7615434 0.791501,-3.4447468 0.985255,-3.740452 0.617019,-0.9416905 1.349073,-0.7219049 4.380093,1.3150399 1.51626,1.018977 2.99643,1.9128193 3.289265,1.986316 0.810699,0.2034727 1.281386,-0.3854599 2.176926,-2.7238036 0.938726,-2.4511059 1.78049,-4.2081668 2.124135,-4.4338177 0.134048,-0.088022 0.522065,-0.1615403 0.862264,-0.1633749 0.495853,-0.00267 1.131114,0.4935416 3.202757,2.5017454 3.437311,3.3320491 3.457713,3.3309811 5.807736,-0.3040199 C 62.385922,0.53561545 62.843171,0 63.459031,0 c 0.806941,0 1.424136,0.64545295 3.095685,3.2374264 0.899196,1.3943334 1.792425,2.6576828 1.984948,2.8074431 0.804319,0.6256599 1.341157,0.3244276 3.979158,-2.2327897 3.67774,-3.56511541 4.043062,-3.48246511 5.890498,1.3326681 0.588781,1.5345933 1.212977,2.9326363 1.387105,3.1067623 0.657862,0.6578635 1.478657,0.3610269 4.344849,-1.571294 3.189855,-2.1505263 3.799237,-2.3145725 4.474317,-1.20449 0.230909,0.3797003 0.677311,2.0768231 1.00452,3.8189697 0.613605,3.2670021 0.87098,3.7752921 1.911642,3.7752921 0.225168,0 1.761765,-0.58815 3.414663,-1.306999 1.652899,-0.718849 3.128535,-1.306999 3.279197,-1.306999 0.15066,0 0.607217,0.254212 1.014569,0.564915 l 0.740644,0.564915 -0.13381,3.192706 c -0.0736,1.755989 -0.1752,3.39838 -0.2258,3.649758 -0.06594,0.327589 0.06398,0.528121 0.458684,0.707957 0.81444,0.371084 1.74185,0.311079 4.53897,-0.293675 1.38534,-0.299521 2.73566,-0.544583 3.00071,-0.544583 0.56201,0 1.70502,1.015289 1.70122,1.511128 -0.001,0.18725 -0.29433,1.565765 -0.65089,3.063368 -1.14715,4.818203 -1.1669,4.792329 3.65704,4.792329 1.86152,0 3.52672,0.09872 3.75861,0.222826 1.13529,0.607586 1.02206,1.498509 -0.6817,5.36403 -0.58866,1.33555 -1.07029,2.619188 -1.07029,2.852527 0,0.713133 0.73596,1.146706 2.53141,1.49132 5.392,1.034925 5.74625,1.18103 5.74625,2.369929 0,0.555734 -0.44351,1.390718 -1.85158,3.485968 -2.12118,3.156357 -2.27446,3.749052 -1.14363,4.421948 0.38938,0.231693 1.78085,0.846307 3.09216,1.365807 2.85065,1.12933 3.7429,1.813038 3.52081,2.697905 -0.089,0.354617 -1.12623,1.57609 -2.52013,2.96778 -1.30288,1.300817 -2.43625,2.577384 -2.51859,2.836817 -0.25357,0.798936 0.28842,1.397347 2.6581,2.934811 4.65324,3.019054 4.66572,3.459687 0.17877,6.31194 -1.07827,0.685434 -2.18105,1.447481 -2.45062,1.693437 -0.91549,0.835301 -0.67421,1.324924 2.00047,4.059606 2.89919,2.964216 3.15981,3.504009 2.1135,4.377505 -0.38045,0.317613 -1.89059,1.045668 -3.35587,1.617901 -1.46527,0.572234 -2.83568,1.191323 -3.04535,1.375753 -0.69281,0.609439 -0.43789,1.363531 1.39776,4.134693 1.48437,2.240856 1.78198,2.836236 1.79713,3.595273 0.0232,1.161704 -0.17623,1.262596 -3.987,2.017172 -1.6038,0.31757 -3.15004,0.684039 -3.4361,0.814376 -0.91404,0.416464 -0.86983,1.094628 0.23123,3.547443 1.78314,3.972252 1.91508,4.531482 1.24013,5.255958 -0.3765,0.404129 -0.74742,0.45569 -3.98486,0.553877 -2.11716,0.0642 -3.76533,0.21297 -4.05044,0.36555 -0.65679,0.35151 -0.62651,1.02189 0.2148,4.75634 l 0.69804,3.09847 -0.51691,0.55023 c -0.67576,0.71931 -1.67326,0.72047 -4.83988,0.006 -2.91636,-0.65833 -3.47662,-0.67362 -3.98773,-0.10885 -0.359446,0.39717 -0.381314,0.73788 -0.247124,3.84995 l 0.14721,3.41421 -0.58981,0.61563 c -0.336892,0.35164 -0.821515,0.61563 -1.130147,0.61563 -0.297183,0 -1.799006,-0.53913 -3.337385,-1.19808 -4.460749,-1.91071 -4.589227,-1.84984 -5.287494,2.50508 -0.56256,3.50855 -1.042264,4.5745 -2.058636,4.5745 -0.227538,0 -1.677141,-0.83151 -3.221345,-1.8478 -3.07888,-2.02631 -3.899274,-2.34031 -4.466015,-1.70933 -0.196886,0.2192 -0.761795,1.41411 -1.255355,2.65534 -1.585479,3.98728 -2.034239,4.58247 -3.228975,4.28261 -0.310195,-0.0778 -1.668772,-1.22003 -3.019061,-2.53817 -2.23622,-2.18298 -2.5191,-2.39047 -3.173343,-2.3276 -0.648502,0.0623 -0.867681,0.29617 -2.256507,2.40746 -2.174593,3.30581 -2.850334,3.97428 -3.689758,3.65007 z m 4.029913,-17.43086 c 3.416878,-0.30039 5.878569,-0.74854 8.891456,-1.61869 2.571708,-0.74274 6.008196,-1.93506 6.533524,-2.26686 0.157067,-0.0992 0.709332,-2.08238 1.227255,-4.40705 1.079683,-4.846111 1.440173,-5.866553 2.339939,-6.623654 0.90115,-0.75827 2.179686,-0.716229 6.649291,0.218644 2.004804,0.419328 3.810483,0.762416 4.012622,0.762416 0.42384,0 4.391785,-4.602932 4.157005,-4.822242 -0.0857,-0.08008 -4.616006,-0.193229 -10.06728,-0.251454 -6.787273,-0.07249 -10.186056,-0.188194 -10.78274,-0.367066 -1.277289,-0.382905 -3.759005,-2.96939 -4.659501,-4.856211 -0.449834,-0.942544 -1.092725,-3.135625 -1.787574,-6.097916 -1.544267,-6.583564 -1.961156,-7.752664 -3.278497,-9.194044 -0.641351,-0.701741 -1.582009,-1.429282 -2.305821,-1.783408 l -1.222549,-0.59814 -7.04206,-0.09239 -7.042057,-0.09239 v 4.24066 4.240658 l 5.697079,0.133246 c 3.664664,0.08571 5.782296,0.218363 5.935953,0.371835 0.160356,0.160166 0.259666,2.490532 0.302128,7.089728 l 0.06325,6.851137 -8.123081,2.31e-4 c -14.064505,3.97e-4 -30.66881,0.271782 -30.66881,0.501258 0,0.266073 2.105691,2.84437 3.126531,3.828259 l 0.763124,0.7355 4.048899,-0.817915 c 4.670578,-0.943499 5.674789,-0.939902 6.680812,0.02393 0.743005,0.711846 0.959507,1.379445 2.148963,6.626528 0.702512,3.09901 0.95053,3.86203 1.357948,4.17765 1.186587,0.91925 5.749237,2.37117 10.409864,3.31261 4.596717,0.92854 8.302969,1.15592 12.634322,0.77514 z m 26.064894,-3.61878 c 2.193974,-1.04111 2.719897,-4.0886 1.028654,-5.9606 -0.911721,-1.009163 -1.967687,-1.408014 -3.208707,-1.211964 -1.908889,0.301558 -3.408526,2.031024 -3.408526,3.930904 0,2.58471 3.137642,4.40471 5.588579,3.24166 z M 36.872168,106.4346 c 0.399686,-0.167 1.009194,-0.674 1.35446,-1.12667 0.555135,-0.72782 0.627756,-1.00139 0.627756,-2.36482 0,-1.81312 -0.373013,-2.48663 -1.756981,-3.172369 -1.838172,-0.910797 -4.160273,-0.333298 -5.159258,1.283089 -0.60088,0.97224 -0.636365,2.65445 -0.07978,3.78179 0.802928,1.62629 3.153956,2.37607 5.0138,1.59898 z M 101.06663,76.228168 c 1.19758,-0.310541 2.4795,-1.356996 3.01341,-2.459896 0.35425,-0.731789 0.52826,-1.652585 0.67169,-3.554449 0.15364,-2.037188 0.2718,-2.624003 0.57268,-2.844012 0.249,-0.182071 1.15212,-0.277206 2.63155,-0.277206 1.94034,0 2.27415,-0.05282 2.40899,-0.381208 0.20547,-0.500375 0.18359,-5.767923 -0.0292,-7.025118 l -0.16591,-0.980249 -4.55715,-2.050154 c -2.50643,-1.127583 -4.76147,-2.267641 -5.01119,-2.533458 -0.24973,-0.265818 -0.58699,-0.925053 -0.749484,-1.464965 -0.290426,-0.96501 -0.27772,-1.025487 0.749144,-3.56587 0.57452,-1.421315 1.64476,-3.935075 2.37832,-5.586135 0.73356,-1.651059 1.33373,-3.121433 1.33372,-3.267497 -5e-5,-0.399427 -1.92205,-3.305273 -3.4895,-5.275733 C 99.051854,32.734807 95.092101,28.665623 92.985918,26.907822 88.094939,22.825856 79.06183,18.545321 73.417902,17.635093 l -1.378949,-0.222392 -2.942401,2.841514 c -1.618321,1.562832 -3.350391,3.12094 -3.849046,3.462461 -2.209871,1.513511 -2.542766,1.374856 -6.801787,-2.833045 -2.187718,-2.161459 -3.663383,-3.456981 -3.937676,-3.456981 -0.663367,0 -4.881516,1.223105 -7.243762,2.100419 -2.381788,0.884572 -6.37883,2.837203 -8.622117,4.212072 -2.280451,1.397644 -4.321058,2.967181 -6.924699,5.326153 -2.169202,1.965358 -2.950311,2.852965 -2.716452,3.086826 0.05134,0.05134 11.846773,0.172814 26.212084,0.269954 l 26.118748,0.176622 1.851582,0.608314 c 3.370556,1.107355 5.498662,2.363649 7.890247,4.65788 2.894397,2.77658 4.29738,5.697029 4.473175,9.311369 0.122118,2.51074 -0.200208,3.995162 -1.297409,5.975026 -1.360203,2.454432 -2.995493,4.141929 -7.36285,7.597902 l -0.544582,0.430937 2.181269,2.139368 c 2.597284,2.547384 3.409307,3.944542 4.545557,7.821019 0.424309,1.447595 0.86487,2.877648 0.979025,3.177896 0.549377,1.444975 2.942072,2.453065 5.25522,2.21413 0.539137,-0.05569 1.332741,-0.192656 1.763551,-0.304369 z M 31.99264,61.320027 V 46.180624 h -3.376413 c -1.857028,0 -3.376414,0.05709 -3.376414,0.126864 0,0.06977 0.308922,0.829467 0.686492,1.688207 1.00261,2.28031 1.305862,3.579545 1.050427,4.500369 -0.116585,0.420277 -0.285517,0.866885 -0.375405,0.992466 -0.400179,0.559084 -1.916799,1.386876 -5.583229,3.047402 -3.207866,1.452843 -3.966124,1.880506 -4.08472,2.303806 -0.0801,0.285884 -0.155401,2.207351 -0.167344,4.269924 -0.02555,4.41329 0.495575,8.713295 1.518893,12.532894 l 0.218851,0.816874 h 6.74443 6.744432 z m 39.474235,-6.296909 c 0.564678,-0.210368 1.439352,-0.748697 1.943721,-1.196285 0.853969,-0.75783 0.923637,-0.905086 1.013055,-2.141286 0.156252,-2.160149 -0.786454,-3.403868 -3.43888,-4.536946 -0.900781,-0.3848 -1.673385,-0.424461 -9.530199,-0.489234 l -8.549951,-0.07048 v 4.498282 4.498283 l 8.767784,-0.08992 c 7.681957,-0.07878 8.894931,-0.137287 9.79447,-0.47241 z m 39.286845,-2.195505 c 1.57656,-0.923926 2.32566,-3.327846 1.52156,-4.882806 -0.47199,-0.912736 -1.75334,-1.941758 -2.62047,-2.104431 -3.23854,-0.607554 -5.7367,2.694674 -4.20372,5.556755 1.00251,1.871707 3.43158,2.526993 5.30263,1.430482 z M 20.172846,52.576499 c 1.551293,-1.149233 1.995711,-2.958148 1.172184,-4.771138 -1.134681,-2.497995 -3.959075,-2.971126 -5.935849,-0.994351 -1.81477,1.81477 -1.441191,4.883696 0.729168,5.990071 0.993546,0.506477 3.214564,0.382842 4.034497,-0.224582 z M 65.323325,18.243525 c 2.616708,-1.780916 2.445606,-5.468581 -0.311843,-6.720952 -1.668317,-0.757711 -3.204463,-0.41972 -4.428498,0.974379 -0.837217,0.953539 -1.012769,1.549053 -0.876057,2.97183 0.18933,1.970404 1.675551,3.250494 3.784846,3.259907 0.799916,0.0036 1.313242,-0.132406 1.831552,-0.485164 z"
     id="path2" />
</svg>
