<?xml version="1.0" encoding="UTF-8" standalone="no"?>
<svg
   id="Layer_1"
   version="1.1"
   viewBox="0 0 2812.32 2812.32"
   xml:space="preserve"
   sodipodi:docname="upwork_icon.svg"
   inkscape:version="1.4 (e7c3feb100, 2024-10-09)"
   inkscape:export-filename="upwork_icon.svg"
   inkscape:export-xdpi="96"
   inkscape:export-ydpi="96"
   width="2812.3201"
   height="2812.3201"
   xmlns:inkscape="http://www.inkscape.org/namespaces/inkscape"
   xmlns:sodipodi="http://sodipodi.sourceforge.net/DTD/sodipodi-0.dtd"
   xmlns="http://www.w3.org/2000/svg"
   xmlns:svg="http://www.w3.org/2000/svg"><defs
     id="defs2" /><sodipodi:namedview
     id="namedview2"
     pagecolor="#ffffff"
     bordercolor="#000000"
     borderopacity="0.25"
     inkscape:showpageshadow="2"
     inkscape:pageopacity="0.0"
     inkscape:pagecheckerboard="0"
     inkscape:deskcolor="#d1d1d1"
     inkscape:zoom="5.6568543"
     inkscape:cx="5.2149125"
     inkscape:cy="12.81631"
     inkscape:window-width="1920"
     inkscape:window-height="1008"
     inkscape:window-x="1920"
     inkscape:window-y="0"
     inkscape:window-maximized="1"
     inkscape:current-layer="Layer_1"><inkscape:page
       x="0"
       y="0"
       width="2812.3201"
       height="2812.3201"
       id="page2"
       margin="0"
       bleed="0" /></sodipodi:namedview><path
     d="m -193.66999,-185.19 c -2.8,0 -3.7,2.7 -3.9,4.3 v 0.1 l -0.4,1.5 c 1.2,1 2.7,1.7 4.2,1.7 2,0 3.8,-1.7 3.9,-3.9 0,-2 -1.7,-3.7 -3.8,-3.7 z"
     id="path1"
     style="display:inline" /><path
     d="m -203.56999,-206.09 c -13.7,0 -24.8,11.1 -24.8,24.8 0,13.7 11.1,24.8 24.8,24.8 13.7,0 24.8,-11.1 24.8,-24.8 0,-13.7 -11.1,-24.8 -24.8,-24.8 z m 9.9,32.4 c -2,0 -3.7,-0.6 -5.2,-1.5 l -1.7,8 h -3.9 l 2.4,-11 c -1,-1.4 -2,-3 -2.7,-4.5 v 1.7 c 0,4.1 -3.3,7.4 -7.3,7.4 -4,0 -7.3,-3.3 -7.3,-7.4 v -10 h 3.8 v 10 c 0,2 1.6,3.6 3.6,3.6 2,0 3.6,-1.6 3.6,-3.6 v -10 h 3.8 c 0.8,2.5 2.1,5.5 3.8,8.2 1,-3.8 3.8,-6.1 7.3,-6.1 4.1,0 7.5,3.4 7.5,7.5 -0.2,4.3 -3.6,7.7 -7.7,7.7 z"
     id="path2"
     style="display:inline;fill:#008000" /><path
     style="display:inline;fill:#008000"
     d="m -193.77143,-185.11894 c -2.10028,0.008 -3.32143,2.05494 -3.66664,3.89977 -0.15897,0.83433 -0.81864,2.20447 0.42562,2.52703 1.77655,1.22488 4.63916,1.466 6.10259,-0.35874 1.57769,-1.7173 1.01203,-4.68255 -1.10002,-5.67032 -0.54022,-0.28051 -1.15289,-0.4212 -1.76155,-0.39774 z"
     id="path24" /><path
     style="display:inline;fill:#008000;stroke-width:0.0110485"
     d="m -193.70067,-185.18483 c -0.71068,-8e-4 -1.42908,0.20189 -2.00514,0.62509 -0.72647,0.52531 -1.20689,1.32475 -1.50273,2.15842 -0.17064,0.48543 -0.29316,0.98944 -0.35286,1.50059 -0.007,0.0492 0.0574,0.0249 0.0548,-0.0111 0.082,-0.31643 0.13404,-0.64066 0.23197,-0.95326 0.2266,-0.76975 0.58579,-1.51369 1.12574,-2.1133 0.25353,-0.27924 0.53555,-0.53644 0.86509,-0.72342 0.40225,-0.23387 0.8598,-0.383 1.32598,-0.40307 0.33228,1.9e-4 0.66926,-0.0219 0.99553,0.0559 0.47848,0.091 0.92772,0.29656 1.34126,0.54918 0.65072,0.42268 1.14359,1.07183 1.39449,1.80454 0.16455,0.46536 0.23106,0.96218 0.20656,1.45468 -0.0323,0.80534 -0.35084,1.59852 -0.89805,2.19231 -0.28216,0.34022 -0.62207,0.63417 -1.01281,0.84304 -0.86279,0.47161 -1.89102,0.55828 -2.84899,0.39769 -0.77389,-0.12932 -1.52069,-0.41918 -2.17711,-0.84935 -0.0553,-0.0233 -0.11975,-0.0835 -0.1812,-0.0612 -0.006,0.0514 0.0717,0.0687 0.10222,0.0988 0.97382,0.60579 2.09675,1.02186 3.25421,1.02372 0.98151,0.005 1.94533,-0.41421 2.64285,-1.09859 0.60987,-0.58052 1.02819,-1.3538 1.18837,-2.17983 0.0766,-0.35324 0.0923,-0.71963 0.0458,-1.07799 -0.13117,-0.98105 -0.68473,-1.8891 -1.47928,-2.47524 -0.66352,-0.4961 -1.48819,-0.76592 -2.31671,-0.75752 z"
     id="path25" /><path
     style="display:inline;fill:#008000;stroke-width:0.0110485"
     d="m -197.73082,-180.05206 c -0.0532,0.0139 -0.0454,0.094 -0.0671,0.13515 -0.0545,0.20634 -0.11733,0.41271 -0.16023,0.62081 0.0998,0.10318 0.21925,0.18938 0.33854,0.26946 0.019,0.0192 0.0775,0.0185 0.0397,-0.018 -0.19169,-0.26169 -0.18502,-0.60816 -0.14652,-0.91567 -0.007,-0.021 0.0304,-0.0878 -0.004,-0.0918 z"
     id="path26" /><path
     style="display:inline;fill:#008000;stroke-width:0.00390625"
     d="m -197.5696,-180.83443 c 0.006,0.0598 -0.0209,0.11538 -0.0332,0.17283 -0.0551,0.20873 -0.11255,0.41734 -0.16568,0.62627 0.0171,0.004 0.0301,-0.0187 0.0487,-0.0138 0.0131,-0.0214 0.0103,-0.0514 0.0178,-0.0757 0.0481,-0.25276 0.12129,-0.50023 0.18287,-0.74948 -0.0159,-0.006 -0.0348,2.4e-4 -0.0505,-0.008 0,0.0161 0,0.0322 0,0.0483 z"
     id="path27" /><path
     style="display:inline;fill:#008000;stroke-width:0.00390625"
     d="m -197.26767,-178.78366 c -0.015,0.009 0.009,0.0228 0.0165,0.0285 0.0388,0.0254 0.0757,0.0566 0.11936,0.0726 0.008,-0.008 -0.0114,-0.0262 -7.6e-4,-0.0351 0.0137,-0.008 -0.0149,-0.0153 -0.02,-0.0192 -0.0387,-0.0143 -0.076,-0.0347 -0.11513,-0.0468 z"
     id="path28" /><path
     style="fill:#008000;stroke-width:0.00390625"
     d="m -197.57211,-179.01893 c -0.009,0.01 -0.0356,-0.008 -0.0319,0.0101 0.0325,0.0334 0.0721,0.0611 0.11299,0.0834 0.0165,0.003 -0.002,-0.0153 -0.007,-0.0194 -0.0261,-0.0225 -0.044,-0.0546 -0.0719,-0.0742 l -0.001,-5e-5 z"
     id="path29" /></svg>
