<?xml version="1.0" encoding="UTF-8"?>
<svg enable-background="new 0 0 56.7 56.7" version="1.1" viewBox="0 0 56.7 56.7" xml:space="preserve" xmlns="http://www.w3.org/2000/svg"><path d="m38.8 24.6c-2.8 0-3.7 2.7-3.9 4.3v0.1l-0.4 1.5c1.2 1 2.7 1.7 4.2 1.7 2 0 3.8-1.7 3.9-3.9 0-2-1.7-3.7-3.8-3.7z" enable-background="new 0 0 56.7 56.7"/><g fill="#008000"><path d="m28.9 3.7c-13.7 0-24.8 11.1-24.8 24.8s11.1 24.8 24.8 24.8 24.8-11.1 24.8-24.8-11.1-24.8-24.8-24.8zm9.9 32.4c-2 0-3.7-0.6-5.2-1.5l-1.7 8h-3.9l2.4-11c-1-1.4-2-3-2.7-4.5v1.7c0 4.1-3.3 7.4-7.3 7.4s-7.3-3.3-7.3-7.4v-10h3.8v10c0 2 1.6 3.6 3.6 3.6s3.6-1.6 3.6-3.6v-10h3.8c0.8 2.5 2.1 5.5 3.8 8.2 1-3.8 3.8-6.1 7.3-6.1 4.1 0 7.5 3.4 7.5 7.5-0.2 4.3-3.6 7.7-7.7 7.7z" enable-background="new 0 0 56.7 56.7"/><path d="m38.699 24.671c-2.1003 8e-3 -3.3214 2.0549-3.6666 3.8998-0.15897 0.83433-0.81864 2.2045 0.42562 2.527 1.7766 1.2249 4.6392 1.466 6.1026-0.35873 1.5777-1.7173 1.012-4.6826-1.1-5.6703-0.54023-0.28052-1.1529-0.42121-1.7616-0.39775z"/><path d="m38.769 24.605c-0.71068-8.05e-4 -1.4291 0.20189-2.0051 0.62508-0.72647 0.52531-1.2069 1.3248-1.5027 2.1584-0.17063 0.48543-0.29316 0.98943-0.35286 1.5006-0.0067 0.04922 0.05743 0.0249 0.05481-0.01111 0.08198-0.31643 0.13404-0.64066 0.23198-0.95326 0.2266-0.76975 0.58578-1.5137 1.1257-2.1133 0.25352-0.27924 0.53554-0.53644 0.86509-0.72342 0.40225-0.23387 0.8598-0.383 1.326-0.40307 0.33228 1.9e-4 0.66926-0.02188 0.99553 0.05587 0.47848 0.09097 0.92771 0.29656 1.3413 0.54919 0.65072 0.42268 1.1436 1.0718 1.3945 1.8045 0.16455 0.46536 0.23106 0.96218 0.20656 1.4547-0.03232 0.80534-0.35084 1.5985-0.89805 2.1923-0.28216 0.34022-0.62207 0.63417-1.0128 0.84304-0.86279 0.47161-1.891 0.55828-2.849 0.39769-0.77388-0.12932-1.5207-0.41918-2.1771-0.84935-0.05533-0.02332-0.11975-0.08353-0.1812-0.06121-0.0059 0.05135 0.07167 0.06869 0.10222 0.09876 0.97382 0.6058 2.0967 1.0219 3.2542 1.0237 0.98151 0.0049 1.9453-0.41421 2.6429-1.0986 0.60987-0.58052 1.0282-1.3538 1.1884-2.1798 0.07662-0.35324 0.09226-0.71963 0.0458-1.078-0.13117-0.98105-0.68474-1.8891-1.4793-2.4752-0.66352-0.4961-1.4882-0.76592-2.3167-0.75752z" stroke-width=".011048"/><path d="m34.739 29.738c-0.05321 0.0139-0.04539 0.094-0.06709 0.13515-0.05447 0.20635-0.11732 0.41271-0.16022 0.62081 0.09977 0.10318 0.21925 0.18938 0.33853 0.26946 0.01901 0.01916 0.07747 0.01851 0.03968-0.01795-0.19169-0.26169-0.18502-0.60816-0.14652-0.91566-0.0067-0.02102 0.03041-0.08777-0.0044-0.0918z" stroke-width=".011048"/><g stroke-width=".0039062"><path d="m34.9 28.956c0.0058 0.05982-0.02087 0.11538-0.03321 0.17283-0.05506 0.20874-0.11256 0.41735-0.16568 0.62628 0.01709 0.0041 0.03009-0.01871 0.04865-0.0138 0.01311-0.02143 0.01025-0.05136 0.01782-0.0757 0.0481-0.25276 0.12128-0.50023 0.18287-0.74948-0.01587-0.0062-0.03476 2.38e-4 -0.05045-0.0084v0.04827z"/><path d="m35.202 31.006c-0.01501 0.0086 0.0093 0.02278 0.01653 0.02849 0.03876 0.02537 0.07569 0.05661 0.11936 0.07258 0.0079-0.0076-0.01135-0.02618-7.63e-4 -0.03514 0.01372-0.0083-0.01491-0.01528-0.01999-0.01916-0.03874-0.01431-0.07604-0.03473-0.11513-0.04676z"/><path d="m34.898 30.771c-0.0086 0.0096-0.03556-0.0084-0.0319 0.01012 0.03248 0.0334 0.07213 0.06108 0.11298 0.08344 0.01655 0.0032-2e-3 -0.01528-0.0068-0.01943-0.02611-0.02249-0.04395-0.05458-0.07189-0.07423l-0.0012-5.3e-5z"/></g></g></svg>
